<?xml version="1.0" encoding="utf-8"?>
<!DOCTYPE svg PUBLIC "-//W3C//DTD SVG 1.1//EN" "http://www.w3.org/Graphics/SVG/1.1/DTD/svg11.dtd">
<svg version="1.1" id="Layer_1" xmlns="http://www.w3.org/2000/svg" xmlns:xlink="http://www.w3.org/1999/xlink" x="0px" y="0px" width="390px" height="120px" viewBox="0 0 390 120" enable-background="new 0 0 390 120" xml:space="preserve">
<g>
	<path fill="#520A76" stroke="#520A76" stroke-width="1.2398" stroke-miterlimit="10" d="M369.73,45.003L369.73,45.003
		c-1.822,0-3.618-0.424-5.193-1.222c-1.717-0.873-3.165-2.163-4.298-3.837c-1.218-1.813-1.898-3.665-2.015-5.505
		c-0.108-1.7,0.259-3.352,1.09-4.911c1.103-2.075,2.961-3.864,5.368-5.17c2.288-1.244,4.893-1.929,7.34-1.929
		c2.428,0,4.589,0.667,6.256,1.923c1.909,1.438,3.1,3.55,3.548,6.281c0.314,1.957,0.233,3.843-0.255,5.596
		c-0.451,1.635-1.239,3.118-2.342,4.414C376.908,43.376,373.356,45.003,369.73,45.003z M372.022,24.104
		c-4.592,0-9.314,2.609-11.234,6.211c-1.45,2.726-1.161,5.729,0.836,8.694c1.889,2.785,4.767,4.321,8.107,4.321
		c3.146,0,6.219-1.408,8.223-3.769c1.392-1.636,2.904-4.463,2.224-8.662C379.172,24.766,374.14,24.104,372.022,24.104z"/>
</g>
<g>
	<g>
		<path fill="#520A76" stroke="#520A76" stroke-width="1.2398" stroke-miterlimit="10" d="M374.416,38.859
			c-0.228,0-0.454-0.094-0.622-0.275c-0.309-0.345-0.63-0.707-0.963-1.079c-2.271-2.542-5.099-5.705-6.934-6.849
			c-0.39-0.246-0.51-0.759-0.266-1.153c0.245-0.39,0.758-0.511,1.151-0.268c2.038,1.272,4.829,4.397,7.292,7.155
			c0.332,0.372,0.653,0.732,0.964,1.072c0.305,0.342,0.278,0.869-0.066,1.181C374.816,38.787,374.618,38.859,374.416,38.859z"/>
	</g>
	<g>
		<path fill="#520A76" stroke="#520A76" stroke-width="1.2398" stroke-miterlimit="10" d="M365.513,39.276
			c-0.206,0-0.414-0.075-0.576-0.228c-0.335-0.319-0.349-0.847-0.029-1.184c1.358-1.434,3.361-3.076,5.303-4.661
			c1.705-1.401,3.315-2.717,4.446-3.847c0.321-0.327,0.853-0.327,1.182,0c0.322,0.327,0.322,0.854,0,1.18
			c-1.191,1.189-2.834,2.532-4.569,3.958c-1.901,1.555-3.864,3.163-5.147,4.523C365.953,39.189,365.732,39.276,365.513,39.276z"/>
	</g>
</g>
<g>
	<path fill="#520A76" d="M22.676,12.222h-3.004c-4.436,0-4.829,0.393-4.829,4.83v85.51c0,4.437,0.393,4.829,4.829,4.829h3.004
		c4.436,0,4.829-0.393,4.829-4.829v-85.51C27.505,12.615,27.112,12.222,22.676,12.222z"/>
	<path fill="#520A76" d="M53.612,29.586c0-4.568-3.658-8.226-8.227-8.226c-4.701,0-8.355,3.658-8.355,8.226
		c0,3.909,2.776,7.233,6.355,8.115v14.735c-4.016,0.031-4.398,0.541-4.398,4.826v45.3c0,4.437,0.393,4.829,4.834,4.829h3
		c4.44,0,4.829-0.393,4.829-4.829v-45.3c0-4.287-0.378-4.795-4.398-4.826V37.685C50.878,36.774,53.612,33.466,53.612,29.586z"/>
	<path fill="#520A76" d="M86.113,52.433h-5.09V37.159c0-4.44-0.389-4.833-4.829-4.833H73.19c-4.44,0-4.829,0.393-4.829,4.833v15.274
		h-0.654c-4.308,0-4.701,0.389-4.701,4.829v2.218c0,4.44,0.393,4.829,4.701,4.829h0.654v38.253c0,4.437,0.389,4.829,4.829,4.829
		h3.004c4.44,0,4.829-0.393,4.829-4.829V64.309h5.09c4.44,0,4.834-0.389,4.834-4.829v-2.218
		C90.947,52.821,90.554,52.433,86.113,52.433z"/>
	<path fill="#520A76" d="M121.618,52.433h-5.09V37.159c0-4.44-0.389-4.833-4.829-4.833h-3.004c-4.44,0-4.829,0.393-4.829,4.833
		v15.274h-0.654c-4.308,0-4.701,0.389-4.701,4.829v2.218c0,4.44,0.393,4.829,4.701,4.829h0.654v38.253
		c0,4.437,0.389,4.829,4.829,4.829h3.004c4.44,0,4.829-0.393,4.829-4.829V64.309h5.09c4.44,0,4.833-0.389,4.833-4.829v-2.218
		C126.452,52.821,126.059,52.433,121.618,52.433z"/>
	<path fill="#520A76" d="M142.11,12.222h-3c-4.441,0-4.829,0.393-4.829,4.83v85.51c0,4.437,0.389,4.829,4.829,4.829h3
		c4.444,0,4.833-0.393,4.833-4.829v-85.51C146.944,12.615,146.555,12.222,142.11,12.222z"/>
	<path fill="#520A76" d="M207.12,79.587c0-17.364-10.051-28.59-25.847-28.59c-16.316,0-26.761,11.355-26.761,29.373
		c0,17.099,10.966,28.718,27.022,28.718c8.227,0,15.535-3,20.757-8.483c2.611-2.872,4.18-5.223,4.18-6.53
		c0-1.436-0.525-1.957-3.137-3.393l-2.346-1.303c-1.701-1.047-2.483-1.308-3.137-1.308c-1.171,0-1.957,0.521-2.74,1.829
		c-3.265,5.222-7.701,7.833-13.056,7.833c-8.094,0-13.577-5.748-14.227-14.752h34.462C206.206,82.98,207.12,82.326,207.12,79.587z
		 M168.611,72.664c1.568-6.266,6.526-10.18,12.663-10.18c6.526,0,11.099,3.654,12.795,10.18H168.611z"/>
	<path fill="#520A76" d="M253.984,60.522c4.829-4.308,7.052-9.397,7.052-15.535c0-8.094-3.919-16.056-9.923-20.231
		c-4.569-3.137-10.445-4.44-20.89-4.44h-8.223c-4.441,0-4.829,0.393-4.829,4.829v77.416c0,4.437,0.389,4.829,4.829,4.829h15.142
		c11.752,0,17.235-1.568,22.979-6.265c5.611-4.701,8.744-11.359,8.744-18.8C268.865,72.143,263.122,63.788,253.984,60.522z
		 M230.355,32.458h4.569c8.876,0,13.709,4.436,13.709,12.53c0,8.355-4.833,12.795-14.23,12.795h-4.048V32.458z M238.45,94.989
		h-8.095v-26.24h6.659c12.662,0,18.928,4.436,18.928,13.445C255.942,90.288,249.677,94.989,238.45,94.989z"/>
	<path fill="#520A76" d="M291.059,29.586c0-4.568-3.654-8.226-8.223-8.226c-4.701,0-8.355,3.658-8.355,8.226
		c0,3.909,2.776,7.233,6.355,8.115v14.735c-4.017,0.03-4.397,0.54-4.397,4.826v45.3c0,4.437,0.393,4.829,4.829,4.829h3.004
		c4.437,0,4.829-0.393,4.829-4.829v-45.3c0-4.286-0.381-4.795-4.397-4.826V37.685C288.324,36.773,291.059,33.465,291.059,29.586z"/>
	<path fill="#520A76" d="M321.602,52.433h-5.09V37.159c0-4.44-0.393-4.833-4.829-4.833h-3.004c-4.436,0-4.83,0.393-4.83,4.833
		v15.274h-0.653c-4.308,0-4.697,0.389-4.697,4.829v2.218c0,4.44,0.39,4.829,4.697,4.829h0.653v38.253
		c0,4.437,0.394,4.829,4.83,4.829h3.004c4.436,0,4.829-0.393,4.829-4.829V64.309h5.09c4.44,0,4.833-0.389,4.833-4.829v-2.218
		C326.435,52.821,326.042,52.433,321.602,52.433z"/>
	<path fill="#520A76" d="M350.453,72.536c-6.005-2.744-7.312-3.919-7.312-6.27c0-2.218,1.829-3.914,4.18-3.914
		c1.957,0,2.872,0.521,4.701,2.872c0.649,0.914,1.436,1.308,2.346,1.308c0.654,0,0.915-0.133,3.004-1.308l2.351-1.175
		c2.74-1.436,3.133-1.958,3.133-3.394c0-4.308-8.094-9.658-14.752-9.658c-9.659,0-16.971,7.047-16.971,16.577
		c0,6.787,2.611,10.184,10.705,14.231c11.881,5.872,12.663,6.526,12.663,10.052c0,3.525-2.611,5.876-6.526,5.876
		c-2.482,0-4.833-1.047-6.009-2.872c-2.478-3.397-2.739-3.658-4.042-3.526c-0.526,0-1.44,0.389-2.876,1.043l-2.48,1.175
		c-2.872,1.308-3.393,1.829-3.393,3.265c0,0.914,0.52,2.218,1.696,3.787c3.654,5.351,10.052,8.483,17.103,8.483
		c10.834,0,19.449-8.222,19.449-18.539C367.423,82.459,363.897,78.801,350.453,72.536z"/>
</g>
</svg>
